#!OML:ASF F:\twosubjects\two\wednesday\Session 1\rory1.ASF
:FULLY-SPECIFIED
:DEGREES
102
root 0.00337246 16.7289 -9.20785 -154.673 -46.3175 153.723
lowerback 9.0984 -1.81616 -9.48869
upperback 1.94437 -3.78425 -4.3026
thorax -2.77215 -1.95943 1.24793
lowerneck -5.20403 -9.99652 -10.7136
upperneck -4.88825 -13.116 18.5616
head 1.45565 -6.60128 6.79106
rclavicle 1.92821e-014 6.59965e-014
rhumerus -66.6451 38.6349 -70.3746
rradius 83.3973
rwrist -48.427
rhand -12.434 18.5092
rfingers 7.12502
rthumb 13.6388 -11.024
lclavicle 1.92821e-014 6.59965e-014
lhumerus -76.3522 18.1009 31.0181
lradius 14.9662
lwrist -15.2827
lhand -17.5632 20.0439
lfingers 7.12502
lthumb 8.6919 49.8449
rfemur -21.4908 4.78931 28.9842
rtibia 39.8602
rfoot -13.5963 -2.90685
rtoes 36.2832
lfemur -40.5346 21.6727 -10.8504
ltibia 117.643
lfoot -5.46321 -9.31271
ltoes -18.7182
103
root -0.087692 16.8632 -9.34789 -155.835 -44.7587 154.884
lowerback 9.13832 -1.70701 -9.328
upperback 1.90334 -3.6683 -4.59524
thorax -2.87949 -1.90864 0.847934
lowerneck -5.53256 -9.9953 -10.728
upperneck -4.57647 -13.1801 19.1261
head 1.6584 -6.62215 6.93381
rclavicle -4.42296e-014 3.45885e-014
rhumerus -66.5401 38.3673 -71.0862
rradius 83.0411
rwrist -47.1933
rhand -12.2787 18.3657
rfingers 7.12502
rthumb 13.7884 -11.1574
lclavicle -4.42296e-014 3.45885e-014
lhumerus -75.6811 17.2087 33.5312
lradius 15.8448
lwrist -12.4533
lhand -17.7112 20.4339
lfingers 7.12502
lthumb 8.54904 50.2409
rfemur -19.1999 4.99828 29.2285
rtibia 37.4961
rfoot -12.3487 -1.58838
rtoes 34.4406
lfemur -42.8117 21.904 -10.4913
ltibia 118.808
lfoot -5.92903 -9.5863
ltoes -12.7479
104
root -0.174337 17.0048 -9.48 -156.865 -43.4914 156.671
lowerback 8.71174 -1.66049 -8.37762
upperback 1.69286 -3.47949 -4.76355
thorax -2.94366 -1.81327 0.120585
lowerneck -5.64804 -10.0605 -10.7172
upperneck -4.4988 -13.3201 19.5777
head 1.75897 -6.69716 7.04887
rclavicle -1.70955e-014 -1.98785e-015
rhumerus -66.2583 37.8456 -71.8798
rradius 82.0613
rwrist -46.3501
rhand -11.8801 18.5078
rfingers 7.12502
rthumb 14.1725 -10.9888
lclavicle -1.70955e-014 -1.98785e-015
lhumerus -74.8432 16.3661 35.3695
lradius 16.3994
lwrist -10.4752
lhand -18.5542 20.7308
lfingers 7.12502
lthumb 7.73545 50.5693
rfemur -17.6881 5.40902 29.9572
rtibia 35.2274
rfoot -10.5775 0.0447037
rtoes 34.3025
lfemur -45.9456 22.2296 -10.0267
ltibia 119.838
lfoot -7.10902 -9.17367
ltoes -15.9806
105
root -0.263125 17.1542 -9.61304 -157.769 -42.267 158.719
lowerback 7.80599 -1.67627 -7.40968
upperback 1.48874 -3.29011 -4.65361
thorax -2.70739 -1.71766 -0.348213
lowerneck -5.63082 -10.0204 -10.6642
upperneck -4.64691 -13.2814 19.766
head 1.72029 -6.69595 7.10685
rclavicle 3.8763e-014 -2.80286e-014
rhumerus -65.6431 37.6423 -72.3283
rradius 81.0604
rwrist -46.0203
rhand -11.0565 18.4832
rfingers 7.12502
rthumb 14.966 -10.956
lclavicle 3.8763e-014 -2.80286e-014
lhumerus -74.2379 15.8338 36.8018
lradius 16.9116
lwrist -8.70594
lhand -19.1271 20.7952
lfingers 7.12502
lthumb 7.18245 50.6533
rfemur -16.5813 6.00283 30.9165
rtibia 33.0831
rfoot -8.31759 1.45304
rtoes 34.6314
lfemur -49.307 22.5559 -9.58523
ltibia 120.611
lfoot -8.01755 -8.93105
ltoes -19.9356
106
root -0.345071 17.2911 -9.73713 -158.446 -41.0696 160.53
lowerback 6.95435 -1.67147 -6.73445
upperback 1.4191 -3.10026 -4.35955
thorax -2.32885 -1.62198 -0.464783
lowerneck -6.41732 -10.0899 -10.7557
upperneck -4.38789 -13.3694 19.8442
head 1.95152 -6.69799 7.08903
rclavicle -4.81059e-014 -6.10269e-014
rhumerus -64.7636 37.4689 -72.3607
rradius 80.1575
rwrist -45.4556
rhand -10.6841 18.4299
rfingers 7.12502
rthumb 15.3248 -10.9823
lclavicle -4.81059e-014 -6.10269e-014
lhumerus -73.9341 16.977 36.1228
lradius 16.9804
lwrist -9.56639
lhand -19.1625 20.4633
lfingers 7.12502
lthumb 7.14827 50.3226
rfemur -15.6481 6.30703 31.8579
rtibia 31.1854
rfoot -5.83877 2.45008
rtoes 31.7772
lfemur -52.8203 22.6286 -9.27996
ltibia 121.243
lfoot -8.12003 -9.13012
ltoes -19.9823
107
root -0.424202 17.4306 -9.85378 -158.821 -39.8602 161.476
lowerback 6.6832 -1.63291 -6.45366
upperback 1.36309 -2.99922 -4.3352
thorax -2.2519 -1.57228 -0.611856
lowerneck -7.32936 -10.2516 -10.6664
upperneck -3.95071 -13.6188 19.9454
head 2.26881 -6.76947 7.02243
rclavicle 1.65488e-014 -4.37326e-015
rhumerus -64.1457 37.1693 -72.8583
rradius 79.0537
rwrist -44.5033
rhand -11.3484 19.3292
rfingers 7.12502
rthumb 14.6848 -10.1307
lclavicle 1.65488e-014 -4.37326e-015
lhumerus -73.0053 16.9942 37.0879
lradius 17.2365
lwrist -8.86505
lhand -19.788 20.6539
lfingers 7.12502
lthumb 6.54444 50.5328
rfemur -14.5562 5.95994 32.2184
rtibia 29.5522
rfoot -3.42599 3.43629
rtoes 25.6935
lfemur -55.9244 21.8342 -9.74443
ltibia 121.528
lfoot -8.18271 -9.02615
ltoes -19.3336
108
root -0.499458 17.5936 -9.98538 -159.354 -38.5264 162.082
lowerback 6.90229 -1.57119 -6.27536
upperback 1.18407 -2.96006 -4.56279
thorax -2.58381 -1.55055 -0.937035
lowerneck -7.48008 -10.3035 -10.3005
upperneck -3.86861 -13.7532 20.0093
head 2.31734 -6.84035 6.9601
rclavicle 2.33572e-015 7.22582e-014
rhumerus -63.8875 37.1391 -74.0008
rradius 77.7683
rwrist -43.7346
rhand -12.0255 20.9629
rfingers 7.12502
rthumb 14.0324 -8.54341
lclavicle 2.33572e-015 7.22582e-014
lhumerus -72.0446 15.9047 38.7083
lradius 17.7349
lwrist -7.01478
lhand -21.2887 21.5456
lfingers 7.12502
lthumb 5.09559 51.4643
rfemur -13.181 5.62009 32.2735
rtibia 28.1281
rfoot -0.795053 4.19546
rtoes 21.9395
lfemur -57.9777 20.6263 -10.426
ltibia 121.218
lfoot -8.6051 -8.93714
ltoes -19.4558
109
root -0.56664 17.7583 -10.1326 -160.154 -36.9832 162.695
lowerback 7.4028 -1.38502 -6.17151
upperback 0.953279 -2.79354 -4.77538
thorax -3.12555 -1.46122 -1.20873
lowerneck -7.48112 -10.4026 -10.0976
upperneck -3.78863 -13.9322 19.9876
head 2.35047 -6.93379 6.90017
rclavicle -8.04829e-014 -2.127e-014
rhumerus -64.8739 35.7331 -74.2143
rradius 78.8916
rwrist -41.635
rhand -10.9547 20.857
rfingers 7.12502
rthumb 15.0641 -8.57494
lclavicle -8.04829e-014 -2.127e-014
lhumerus -71.1172 14.3552 40.5275
lradius 18.3246
lwrist -4.71569
lhand -22.0967 22.3966
lfingers 7.12502
lthumb 4.31538 52.3326
rfemur -11.7249 5.61743 32.2905
rtibia 27.0333
rfoot 2.34146 4.5105
rtoes 21.6241
lfemur -59.1648 19.5836 -10.8348
ltibia 120.509
lfoot -8.98709 -9.65621
ltoes -18.9676
110
root -0.633902 17.9046 -10.2707 -160.883 -35.4938 163.52
lowerback 7.62943 -1.23284 -5.99519
upperback 0.818598 -2.61041 -4.79867
thorax -3.40568 -1.36542 -1.33987
lowerneck -7.63232 -10.5192 -10.0539
upperneck -3.81569 -14.0895 19.9123
head 2.38024 -7.01116 6.84593
rclavicle -1.22166e-013 6.24432e-014
rhumerus -66.0624 33.6978 -73.778
rradius 81.091
rwrist -38.5328
rhand -9.76261 20.0329
rfingers 7.12502
rthumb 16.2122 -9.30915
lclavicle -1.22166e-013 6.24432e-014
lhumerus -70.496 14.6087 40.2193
lradius 18.4195
lwrist -5.045
lhand -22.475 22.6067
lfingers 7.12502
lthumb 3.95013 52.5499
rfemur -10.8154 5.24727 32.4919
rtibia 26.3885
rfoot 5.5471 4.95694
rtoes 19.0113
lfemur -60.7067 18.5761 -11.0956
ltibia 119.79
lfoot -8.96929 -10.7355
ltoes -17.8309
111
root -0.698431 18.0566 -10.4029 -161.21 -33.9034 164.116
lowerback 7.47499 -1.13964 -6.11829
upperback 0.768649 -2.49059 -4.80573
thorax -3.3691 -1.30663 -1.29454
lowerneck -7.622 -10.4538 -9.98778
upperneck -4.13987 -13.9927 19.9947
head 2.27292 -6.99042 6.87984
rclavicle 6.3285e-015 2.40716e-014
rhumerus -66.9715 24.8139 -69.9571
rradius 84.5511
rwrist -29.3656
rhand -4.94953 20.2441
rfingers 7.12502
rthumb 20.8419 -8.65644
lclavicle 6.3285e-015 2.40716e-014
lhumerus -69.6029 14.068 41.5321
lradius 19.0448
lwrist -3.56659
lhand -22.9469 23.1659
lfingers 7.12502
lthumb 3.49436 53.117
rfemur -10.5361 4.57449 32.3799
rtibia 26.1549
rfoot 8.74551 5.18703
rtoes 16.4899
lfemur -62.4936 17.355 -11.8485
ltibia 118.803
lfoot -8.70806 -11.5096
ltoes -17.2272
112
root -0.763362 18.2068 -10.5341 -161.532 -32.15 164.422
lowerback 7.49954 -0.967477 -6.43121
upperback 0.796116 -2.30649 -4.86898
thorax -3.35004 -1.21898 -1.2047
lowerneck -7.87816 -10.3581 -10.1065
upperneck -4.20731 -13.8696 20.263
head 2.31081 -6.93 6.9822
rclavicle -3.12837e-014 -3.39922e-014
rhumerus -66.7226 22.9913 -69.5321
rradius 85.3769
rwrist -26.6327
rhand -4.51044 20.401
rfingers 7.12502
rthumb 21.2637 -8.45257
lclavicle -3.12837e-014 -3.39922e-014
lhumerus -68.6846 13.5754 42.6971
lradius 19.759
lwrist -2.29844
lhand -22.9821 22.9953
lfingers 7.12502
lthumb 3.46041 52.9469
rfemur -10.3388 4.16414 31.9217
rtibia 26.3189
rfoot 12.0364 4.14514
rtoes 13.2838
lfemur -63.7362 15.9969 -12.8702
ltibia 117.529
lfoot -8.89588 -12.1462
ltoes -18.7601
113
root -0.84023 18.3176 -10.6465 -162.149 -30.5852 165.389
lowerback 7.49337 -0.825451 -6.04762
upperback 0.940829 -2.05135 -4.66498
thorax -3.20531 -1.09458 -1.23207
lowerneck -8.66138 -10.3707 -10.3446
upperneck -4.23545 -13.8322 20.296
head 2.44569 -6.88078 6.99488
rclavicle 9.69075e-015 -3.24267e-014
rhumerus -66.3942 22.2303 -69.1201
rradius 86.2025
rwrist -25.1687
rhand -3.5193 19.7277
rfingers 7.12502
rthumb 22.2155 -9.01565
lclavicle 9.69075e-015 -3.24267e-014
lhumerus -67.5508 14.4985 42.1443
lradius 19.4287
lwrist -3.07264
lhand -23.2285 22.1346
lfingers 7.12502
lthumb 3.22245 52.09
rfemur -10.4206 3.76971 32.1204
rtibia 26.9248
rfoot 15.0951 2.50888
rtoes 8.35076
lfemur -65.1903 14.7935 -13.1171
ltibia 116.47
lfoot -9.24971 -12.9599
ltoes -20.8092
